HIERARCHY
ROOT Hips
{
 OFFSET 0.000000 0.000000 0.000000
 CHANNELS 6 Xposition Yposition Zposition Yrotation Xrotation Zrotation
 JOINT Chest
 {
  OFFSET 0.000000 9.585900 0.002600
  CHANNELS 3 Yrotation Xrotation Zrotation
  JOINT Chest2
  {
   OFFSET 0.000000 9.601200 -0.005300
   CHANNELS 3 Yrotation Xrotation Zrotation
   JOINT Chest3
   {
    OFFSET 0.000000 9.561800 0.000000
    CHANNELS 3 Yrotation Xrotation Zrotation
    JOINT Chest4
    {
     OFFSET 0.000000 9.552100 0.000000
     CHANNELS 3 Yrotation Xrotation Zrotation
     JOINT Neck
     {
      OFFSET 0.000000 14.453000 0.000000
      CHANNELS 3 Yrotation Xrotation Zrotation
      JOINT Head
      {
       OFFSET 0.000000 8.936500 -0.011300
       CHANNELS 3 Yrotation Xrotation Zrotation
       End Site
       {
        OFFSET 0.000000 17.073600 -0.006000
       }
      }
     }
     JOINT RightCollar
     {
      OFFSET -2.921100 9.558500 0.000000
      CHANNELS 3 Yrotation Xrotation Zrotation
      JOINT RightShoulder
      {
       OFFSET -13.519700 0.000000 0.000000
       CHANNELS 3 Yrotation Xrotation Zrotation
       JOINT RightElbow
       {
        OFFSET 0.000000 -29.696600 0.000000
        CHANNELS 3 Yrotation Xrotation Zrotation
        JOINT RightWrist
        {
         OFFSET 0.000000 -24.004700 0.000000
         CHANNELS 3 Yrotation Xrotation Zrotation
         End Site
         {
          OFFSET 0.000000 -17.728500 0.000000
         }
        }
       }
      }
     }
     JOINT LeftCollar
     {
      OFFSET 2.921100 9.558500 0.000000
      CHANNELS 3 Yrotation Xrotation Zrotation
      JOINT LeftShoulder
      {
       OFFSET 13.519700 0.000000 0.000000
       CHANNELS 3 Yrotation Xrotation Zrotation
       JOINT LeftElbow
       {
        OFFSET 0.000000 -29.696600 0.000000
        CHANNELS 3 Yrotation Xrotation Zrotation
        JOINT LeftWrist
        {
         OFFSET 0.000000 -24.004700 0.000000
         CHANNELS 3 Yrotation Xrotation Zrotation
         End Site
         {
          OFFSET 0.000000 -17.728500 0.000000
         }
        }
       }
      }
     }
    }
   }
  }
 }
 JOINT RightHip
 {
  OFFSET -7.771700 -0.012900 -0.001300
  CHANNELS 3 Yrotation Xrotation Zrotation
  JOINT RightKnee
  {
   OFFSET 0.000000 -40.869800 0.001200
   CHANNELS 3 Yrotation Xrotation Zrotation
   JOINT RightAnkle
   {
    OFFSET 0.000000 -39.717900 0.002100
    CHANNELS 3 Yrotation Xrotation Zrotation
    JOINT RightToe
    {
     OFFSET 0.000000 -4.965400 11.033500
     CHANNELS 3 Yrotation Xrotation Zrotation
     End Site
     {
      OFFSET 0.000000 -1.423100 5.872300
     }
    }
   }
  }
 }
 JOINT LeftHip
 {
  OFFSET 7.771700 -0.012900 -0.001300
  CHANNELS 3 Yrotation Xrotation Zrotation
  JOINT LeftKnee
  {
   OFFSET 0.000000 -40.869800 0.001200
   CHANNELS 3 Yrotation Xrotation Zrotation
   JOINT LeftAnkle
   {
    OFFSET 0.000000 -39.717900 0.002100
    CHANNELS 3 Yrotation Xrotation Zrotation
    JOINT LeftToe
    {
     OFFSET 0.000000 -4.965400 11.033500
     CHANNELS 3 Yrotation Xrotation Zrotation
     End Site
     {
      OFFSET 0.000000 -1.423100 5.872300
     }
    }
   }
  }
 }
}
MOTION
Frames: 14
Frame Time: 0.008333
0.000000 85.388000 0.000000 0.000000 -5.767877 0.000000 0.000000 11.653817 0.000000 0.000000 -5.885947 0.000000 0.000000 -0.000000 0.000000 0.000000 -0.000000 0.000000 0.000000 12.528835 0.000000 0.000000 0.711642 0.000000 0.000000 -0.000000 0.000000 0.000000 0.000000 -90.000000 0.000000 -2.309062 0.000000 0.000000 2.309062 0.000000 0.000000 -0.000000 0.000000 0.000000 -0.000000 90.000000 0.000000 -2.309062 0.000000 0.000000 2.309062 0.000000 0.000000 8.520406 0.000000 0.000000 1.905762 0.000000 -0.000000 -4.658285 0.000000 0.000000 -0.000000 0.000000 0.000000 8.520406 0.000000 0.000000 1.905762 0.000000 -0.000000 -4.658285 0.000000 0.000000 -0.000000 0.000000
-209.950684 58.261247 130.212258 176.444401 -33.385520 -1.441698 3.123438 18.264379 0.918700 0.341340 2.105322 0.073163 0.566315 3.481354 0.127817 2.722349 15.962008 0.892682 -2.129739 26.300494 -0.848984 -3.614767 13.046923 -1.049500 0.700225 -0.184588 -1.382460 -0.601822 -15.050191 -12.381007 20.467585 -59.661508 -3.093318 6.070762 12.729936 -32.710535 -6.329470 -5.360401 -0.966953 -6.213440 -25.645259 -2.735172 -53.997570 -23.956948 20.977948 -16.668597 2.345283 25.509139 1.743074 -47.512147 -12.887915 5.157308 71.234903 8.702298 -5.386586 37.297014 -3.530185 -0.098046 -0.231158 0.195735 3.631945 -41.272727 -2.719855 22.000934 71.109728 25.091458 -13.234706 11.280144 1.990199 0.226947 -9.508214 -2.411951
-209.914397 58.255213 130.218929 176.526095 -33.428918 -1.480272 3.114362 18.245305 0.968784 0.307474 2.135454 0.055843 0.598461 3.443287 0.144006 2.681521 15.992321 0.879645 -2.092542 26.255185 -0.835670 -3.616157 13.035252 -1.036614 0.772795 -0.284889 -1.388793 -0.573878 -15.105063 -12.412854 20.462385 -59.519783 -2.868723 6.068282 12.733412 -32.662366 -6.301115 -5.421275 -1.010448 -6.272828 -25.721363 -2.724199 -54.022297 -23.831028 20.951912 -16.613074 2.336386 25.393149 1.659840 -47.417882 -12.637294 5.094369 71.256149 8.600843 -5.726072 37.301291 -3.893464 0.134947 -0.431421 0.991784 3.430508 -41.253056 -2.697323 22.037878 71.109619 25.144054 -13.164684 11.311214 1.899421 0.190392 -9.531193 -2.416330
-209.878998 58.247580 130.226670 176.607972 -33.478469 -1.488886 3.069929 18.266155 0.961396 0.362323 2.085096 0.082026 0.582974 3.456574 0.136502 2.695451 15.965447 0.888553 -2.112250 26.266354 -0.830253 -3.654242 13.070922 -1.020751 0.790899 -0.323109 -1.398303 -0.536119 -15.152350 -12.430635 20.444255 -59.383389 -2.651308 6.067019 12.725982 -32.635318 -6.327321 -5.421441 -1.059368 -6.318394 -25.797504 -2.730361 -54.010406 -23.710633 20.876500 -16.640414 2.322308 25.294925 1.682906 -47.312633 -12.459176 5.051934 71.297368 8.532297 -6.020219 37.298086 -4.245516 0.320399 -0.885084 1.730651 3.250588 -41.224724 -2.712103 22.072981 71.106888 25.191891 -13.102918 11.348507 1.814667 0.179715 -9.557187 -2.431948
-209.845956 58.239250 130.234090 176.684461 -33.540546 -1.469193 3.099389 18.252077 0.978857 0.362390 2.083240 0.082238 0.564324 3.471159 0.128736 2.662308 15.976574 0.885128 -2.086203 26.240602 -0.821600 -3.700205 13.103944 -0.996076 0.853532 -0.393543 -1.404246 -0.480409 -15.192526 -12.437911 20.410300 -59.251203 -2.448400 6.064787 12.711418 -32.620827 -6.308171 -5.454302 -1.097129 -6.354708 -25.870778 -2.756121 -54.010349 -23.587039 20.814771 -16.699784 2.323911 25.182680 1.804170 -47.191233 -12.347847 5.045238 71.355312 8.512057 -6.283100 37.278400 -4.627525 0.474041 -1.491578 2.457104 3.119407 -41.180804 -2.760387 22.124803 71.103229 25.245602 -13.056654 11.392882 1.761745 0.171788 -9.590474 -2.457122
-209.812885 58.229072 130.243331 176.776075 -33.596964 -1.460088 3.136287 18.232061 1.003839 0.340935 2.098100 0.073664 0.565627 3.469983 0.128633 2.694628 15.955572 0.891942 -2.119534 26.246830 -0.803363 -3.672834 13.005841 -0.959653 0.851504 -0.428114 -1.393447 -0.401451 -15.224642 -12.440985 20.365525 -59.123457 -2.270006 6.063873 12.694353 -32.613607 -6.351267 -5.449726 -1.122370 -6.385073 -25.939023 -2.800692 -54.023532 -23.465690 20.748908 -16.720774 2.324712 25.110402 1.962612 -47.072273 -12.258721 5.091009 71.424421 8.553326 -6.527711 37.235506 -5.059567 0.603962 -2.168385 3.194711 2.970072 -41.142352 -2.810317 22.194884 71.090777 25.335890 -13.025534 11.416591 1.661636 0.170758 -9.601698 -2.458356
-209.780880 58.217631 130.253511 176.874292 -33.649821 -1.459039 3.157894 18.224037 1.019511 0.342830 2.097211 0.073428 0.568742 3.468633 0.128315 2.739207 15.934210 0.897377 -2.157674 26.252993 -0.778700 -3.679992 12.960580 -0.916720 0.836930 -0.456931 -1.369319 -0.305802 -15.250363 -12.441166 20.329272 -58.998497 -2.125381 6.067329 12.675687 -32.614752 -6.408127 -5.436598 -1.134179 -6.405011 -26.001827 -2.863682 -54.057017 -23.352280 20.659879 -16.739298 2.347620 25.074210 2.147694 -46.955019 -12.183919 5.203998 71.500808 8.663666 -6.764882 37.164619 -5.539794 0.715501 -2.851711 3.947350 2.811477 -41.105492 -2.859759 22.268559 71.067485 25.448178 -13.018068 11.434632 1.527594 0.185545 -9.603639 -2.448169
-209.753802 58.205952 130.262802 176.966160 -33.707183 -1.440170 3.187219 18.222169 1.021380 0.345755 2.095685 0.073030 0.573614 3.466171 0.127752 2.762420 15.927065 0.897360 -2.170021 26.243790 -0.754275 -3.707402 12.944215 -0.870283 0.842352 -0.495083 -1.340935 -0.203301 -15.270953 -12.438723 20.319503 -58.875875 -2.013509 6.072642 12.652215 -32.632215 -6.446491 -5.429035 -1.140147 -6.414716 -26.061184 -2.940074 -54.083661 -23.215281 20.712164 -16.771391 2.308390 24.917587 2.379760 -46.831482 -12.150200 5.382752 71.583153 8.837029 -6.996810 37.062029 -6.051099 0.813910 -3.496609 4.705593 2.671665 -41.060402 -2.923263 22.389210 71.038251 25.579748 -13.009573 11.452245 1.430261 0.183357 -9.604991 -2.446314
-209.729723 58.194095 130.271399 177.056920 -33.765727 -1.419644 3.219159 18.222241 1.022396 0.349011 2.093291 0.072513 0.579060 3.462260 0.126929 2.788850 15.916678 0.896712 -2.181882 26.236768 -0.729432 -3.734060 12.931902 -0.823245 0.846212 -0.525097 -1.308719 -0.094263 -15.288012 -12.435022 20.346629 -58.756981 -1.935749 6.080806 12.626395 -32.665928 -6.483124 -5.409194 -1.142205 -6.417864 -26.119845 -3.027977 -54.118781 -23.081567 20.737858 -16.804951 2.284466 24.796858 2.630653 -46.703997 -12.138198 5.616712 71.668133 9.064244 -7.220138 36.932615 -6.565743 0.897342 -4.083444 5.446503 2.533387 -41.011094 -2.985083 22.497442 71.007466 25.693036 -13.006327 11.467040 1.340341 0.191313 -9.602350 -2.448706
-209.706090 58.182905 130.278308 177.145969 -33.831628 -1.411686 3.255351 18.228913 1.037384 0.352395 2.090092 0.071980 0.584678 3.457091 0.126104 2.816501 15.903533 0.896083 -2.191993 26.232709 -0.705388 -3.757397 12.925103 -0.778007 0.853088 -0.546265 -1.275637 0.021539 -15.303835 -12.428902 20.420411 -58.642175 -1.902332 6.093461 12.608764 -32.701019 -6.511236 -5.379517 -1.141805 -6.415276 -26.175940 -3.125521 -54.166904 -22.953706 20.746872 -16.835154 2.269688 24.702705 2.879407 -46.570362 -12.125895 5.892705 71.757799 9.329230 -7.442166 36.777220 -7.058637 0.972039 -4.605428 6.147997 2.384104 -40.954202 -3.023495 22.580506 70.984098 25.771410 -12.986560 11.457191 1.256346 0.191439 -9.577457 -2.445605
-209.686411 58.170518 130.285958 177.231555 -33.884256 -1.393767 3.289445 18.222535 1.043782 0.355961 2.086232 0.071560 0.590561 3.450963 0.125505 2.845912 15.888075 0.896692 -2.202317 26.232079 -0.682741 -3.823243 12.970091 -0.725289 0.862068 -0.559390 -1.244184 0.137195 -15.320970 -12.420687 20.543657 -58.529561 -1.913948 6.109839 12.606369 -32.727360 -6.533288 -5.341791 -1.141796 -6.409111 -26.227251 -3.227120 -54.220772 -22.832384 20.762731 -16.865659 2.254454 24.613649 3.146311 -46.443503 -12.138199 6.154064 71.843824 9.572471 -7.637024 36.625341 -7.479188 1.020297 -5.091548 6.779430 2.244429 -40.911794 -3.067254 22.618787 70.972945 25.795344 -12.946863 11.461423 1.183424 0.195378 -9.567604 -2.443324
-209.666810 58.157170 130.294253 177.299802 -33.925189 -1.379751 3.337906 18.204593 1.064126 0.359453 2.081668 0.071314 0.596439 3.443762 0.125187 2.876041 15.870227 0.898878 -2.213282 26.234386 -0.662908 -3.825920 12.951813 -0.692550 0.875267 -0.566178 -1.213970 0.252468 -15.338806 -12.414079 20.707976 -58.418217 -1.964254 6.133831 12.617057 -32.745615 -6.547635 -5.296119 -1.143870 -6.402407 -26.276140 -3.331068 -54.275602 -22.714159 20.786990 -16.897359 2.240548 24.529535 3.419202 -46.327742 -12.143231 6.357917 71.930961 9.752240 -7.801510 36.471689 -7.819059 1.048414 -5.549639 7.333511 2.138478 -40.880982 -3.101224 22.558141 70.974805 25.733983 -12.895064 11.464108 1.119480 0.191161 -9.555701 -2.438671
-209.650742 58.143586 130.301656 177.377387 -33.962588 -1.362166 3.367960 18.186057 1.073102 0.362959 2.076534 0.071388 0.602367 3.435624 0.125414 2.907140 15.850300 0.903678 -2.224419 26.239093 -0.647167 -3.828089 12.938878 -0.667118 0.892788 -0.568680 -1.185092 0.369925 -15.354717 -12.410169 20.897213 -58.310728 -2.041192 6.167086 12.636855 -32.757887 -6.554159 -5.244506 -1.149157 -6.395265 -26.323078 -3.434842 -54.330566 -22.597883 20.817765 -16.932451 2.224313 24.452685 3.693822 -46.212898 -12.172079 6.504360 72.022201 9.870462 -7.947585 36.314659 -8.102639 1.062371 -6.002780 7.828224 2.002094 -40.857931 -3.124504 22.497637 70.985749 25.643375 -12.852053 11.457493 1.052747 0.202609 -9.534378 -2.427189
-209.637244 58.130306 130.307306 177.460874 -34.002540 -1.343735 3.385550 18.170860 1.075543 0.366502 2.071197 0.072012 0.608231 3.427091 0.126506 2.938742 15.829388 0.912477 -2.235858 26.246390 -0.635306 -3.851096 12.952899 -0.643651 0.911951 -0.566223 -1.160594 0.487887 -15.371994 -12.407742 21.095559 -58.207876 -2.129098 6.202049 12.666270 -32.765220 -6.554609 -5.187652 -1.160868 -6.387341 -26.366747 -3.533401 -54.387985 -22.485811 20.851747 -16.968132 2.186935 24.376785 3.961477 -46.093192 -12.211494 6.596742 72.115464 9.931056 -8.086256 36.154173 -8.369538 1.065119 -6.469834 8.296898 1.837530 -40.836829 -3.135592 22.475338 71.002093 25.562539 -12.802172 11.454779 0.998735 0.205074 -9.519488 -2.418496
